<svg width="183" height="40" viewBox="0 0 183 40" fill="none" xmlns="http://www.w3.org/2000/svg">
<path fill-rule="evenodd" clip-rule="evenodd" d="M32.2119 31.5556C32.5102 32.5926 30.8697 34.6667 29.5276 34.6667C28.994 34.6667 28.3809 34.6272 27.7031 34.5835C24.2878 34.3634 19.2293 34.0374 14.4238 38.1265C13.7855 38.6696 13.1517 39.2906 12.5269 40V34.6667H2.68433C1.78955 34.6667 0 34.2222 0 32.4444V0H32.2119V31.5556ZM27.9412 32.6813C24.8041 32.4617 19.53 32.0926 14.4238 35.7219V32.7619H2.68433C2.60568 32.7619 2.47205 32.7508 2.32234 32.7154C2.17229 32.6799 2.05375 32.6313 1.97488 32.5843C1.93449 32.5602 1.91359 32.5422 1.90442 32.5332C1.90114 32.5192 1.89691 32.4914 1.89691 32.4444V1.90476H30.315V31.8251L30.3184 31.8369C30.266 31.9508 30.1713 32.1083 30.0307 32.277C29.8683 32.4717 29.695 32.6206 29.5546 32.7082C29.5096 32.7362 29.477 32.7526 29.4568 32.7616C29.0357 32.7579 28.5255 32.7222 27.9412 32.6813ZM1.90758 32.5438L1.90817 32.5448C1.90817 32.5448 1.90769 32.5425 1.90588 32.5388C1.90657 32.5412 1.90758 32.5438 1.90758 32.5438Z" fill="#D70A3F"/>
<path d="M47.8797 13.3332H50.4292L46.7378 8.61322H46.844C46.9857 8.61322 47.1317 8.57322 47.2822 8.49322C47.4327 8.40433 47.5478 8.28433 47.6275 8.13322L48.6233 6.53322C48.7915 6.27544 48.942 6.09322 49.0748 5.98656C49.2076 5.87989 49.3581 5.82655 49.5263 5.82655H49.9644V3.93322H49.0748C48.6499 3.93322 48.2914 4.031 47.9992 4.22656C47.7071 4.41322 47.415 4.74211 47.1229 5.21322L45.7552 7.37322C45.5605 7.711 45.317 7.87989 45.0249 7.87989H44.7859V3.99989H42.6348V13.3332H44.7859V9.05322L47.8797 13.3332Z" fill="#D70A3F"/>
<path fill-rule="evenodd" clip-rule="evenodd" d="M51.8098 13.0666C52.2701 13.3599 52.8101 13.5066 53.4298 13.5066C53.8724 13.5066 54.2752 13.4088 54.6381 13.2132C55.0099 13.0088 55.2843 12.7466 55.4614 12.4266V13.3332H57.4797V6.90656H55.4614V7.82656C55.2843 7.48878 55.0188 7.22211 54.6647 7.02656C54.3106 6.831 53.9078 6.73322 53.4563 6.73322C52.8544 6.73322 52.3188 6.87989 51.8497 7.17322C51.3893 7.46656 51.0353 7.871 50.7874 8.38656C50.5395 8.90211 50.4156 9.47989 50.4156 10.1199C50.4156 10.7688 50.5351 11.351 50.7741 11.8666C51.0131 12.3732 51.3584 12.7732 51.8098 13.0666ZM55.1427 11.3332C54.8771 11.6532 54.5009 11.8132 54.014 11.8132C53.5537 11.8132 53.1819 11.6577 52.8986 11.3466C52.6242 11.0266 52.487 10.6177 52.487 10.1199C52.487 9.62211 52.6242 9.21767 52.8986 8.90656C53.1819 8.59544 53.5537 8.43989 54.014 8.43989C54.5009 8.43989 54.8771 8.59989 55.1427 8.91989C55.4083 9.23989 55.541 9.63989 55.541 10.1199C55.541 10.6088 55.4083 11.0132 55.1427 11.3332Z" fill="#D70A3F"/>
<path fill-rule="evenodd" clip-rule="evenodd" d="M63.2826 6.73322C63.858 6.73322 64.367 6.87544 64.8096 7.15989C65.2611 7.44433 65.6108 7.84433 65.8586 8.35989C66.1065 8.86656 66.2304 9.45322 66.2304 10.1199C66.2304 10.7866 66.1021 11.3777 65.8453 11.8932C65.5975 12.3999 65.2434 12.7954 64.7831 13.0799C64.3316 13.3643 63.8138 13.5066 63.2295 13.5066C62.778 13.5066 62.3664 13.4043 61.9946 13.1999C61.6317 12.9954 61.3617 12.7377 61.1846 12.4266V15.9999H59.1663V6.90656H61.1846V7.82656C61.3617 7.50656 61.6405 7.24433 62.0212 7.03989C62.4018 6.83544 62.8223 6.73322 63.2826 6.73322ZM62.6453 11.8132C63.0879 11.8132 63.4508 11.6577 63.7341 11.3466C64.0174 11.0266 64.159 10.6177 64.159 10.1199C64.159 9.62211 64.0174 9.21767 63.7341 8.90656C63.4508 8.59544 63.0879 8.43989 62.6453 8.43989C62.185 8.43989 61.8132 8.59544 61.5299 8.90656C61.2466 9.21767 61.105 9.62211 61.105 10.1199C61.105 10.6266 61.2466 11.0354 61.5299 11.3466C61.822 11.6577 62.1938 11.8132 62.6453 11.8132Z" fill="#D70A3F"/>
<path fill-rule="evenodd" clip-rule="evenodd" d="M69.4706 8.91989V6.90656H67.4523V13.3332H70.8118C71.3606 13.3332 71.8298 13.2266 72.2193 13.0132C72.6176 12.7999 72.9142 12.5243 73.1089 12.1866C73.3037 11.8488 73.401 11.4977 73.401 11.1332C73.401 10.5021 73.1797 9.97767 72.7371 9.55989C72.3034 9.13322 71.6616 8.91989 70.8118 8.91989H69.4706ZM70.44 12.0132H69.4706V10.2799H70.4532C70.7277 10.2799 70.9401 10.3599 71.0906 10.5199C71.2499 10.6799 71.3296 10.8888 71.3296 11.1466C71.3296 11.4043 71.2499 11.6132 71.0906 11.7732C70.9401 11.9332 70.7232 12.0132 70.44 12.0132Z" fill="#D70A3F"/>
<path fill-rule="evenodd" clip-rule="evenodd" d="M80.8912 9.78656C80.8912 10.0621 80.8735 10.3599 80.8381 10.6799H76.111C76.1287 11.0977 76.2703 11.4177 76.5359 11.6399C76.8014 11.8621 77.16 11.9732 77.6114 11.9732C78.2399 11.9732 78.6383 11.7821 78.8065 11.3999H80.7982C80.7009 12.031 80.3556 12.5421 79.7625 12.9332C79.1783 13.3154 78.4612 13.5066 77.6114 13.5066C76.5137 13.5066 75.6507 13.2088 75.0221 12.6132C74.4025 12.0177 74.0927 11.1866 74.0927 10.1199C74.0927 9.42656 74.2343 8.82656 74.5176 8.31989C74.8008 7.80433 75.2036 7.41322 75.7259 7.14656C76.2482 6.871 76.8546 6.73322 77.545 6.73322C78.2001 6.73322 78.7799 6.86211 79.2845 7.11989C79.7979 7.37767 80.1918 7.73767 80.4663 8.19989C80.7495 8.66211 80.8912 9.191 80.8912 9.78656ZM78.8861 9.41322C78.8773 8.98656 78.7578 8.66211 78.5276 8.43989C78.2975 8.21767 77.9655 8.10655 77.5318 8.10655C77.098 8.10655 76.7528 8.22656 76.496 8.46656C76.2482 8.69767 76.1198 9.01322 76.111 9.41322H78.8861Z" fill="#D70A3F"/>
<path fill-rule="evenodd" clip-rule="evenodd" d="M87.6966 7.15989C87.254 6.87544 86.745 6.73322 86.1696 6.73322C85.7093 6.73322 85.2888 6.83544 84.9082 7.03989C84.5275 7.24433 84.2487 7.50656 84.0716 7.82656V6.90656H82.0533V15.9999H84.0716V12.4266C84.2487 12.7377 84.5187 12.9954 84.8816 13.1999C85.2534 13.4043 85.665 13.5066 86.1165 13.5066C86.7008 13.5066 87.2186 13.3643 87.6701 13.0799C88.1304 12.7954 88.4845 12.3999 88.7323 11.8932C88.9891 11.3777 89.1174 10.7866 89.1174 10.1199C89.1174 9.45322 88.9935 8.86656 88.7456 8.35989C88.4978 7.84433 88.1481 7.44433 87.6966 7.15989ZM86.6211 11.3466C86.3378 11.6577 85.9749 11.8132 85.5323 11.8132C85.0808 11.8132 84.709 11.6577 84.4169 11.3466C84.1336 11.0354 83.992 10.6266 83.992 10.1199C83.992 9.62211 84.1336 9.21767 84.4169 8.90656C84.7002 8.59544 85.0719 8.43989 85.5323 8.43989C85.9749 8.43989 86.3378 8.59544 86.6211 8.90656C86.9044 9.21767 87.046 9.62211 87.046 10.1199C87.046 10.6177 86.9044 11.0266 86.6211 11.3466Z" fill="#D70A3F"/>
<path d="M90.3393 6.90656H92.3709V9.26656H94.761V6.90656H96.7793V13.3332H94.761V10.9066H92.3709V13.3332H90.3393V6.90656Z" fill="#D70A3F"/>
<path fill-rule="evenodd" clip-rule="evenodd" d="M100.488 8.91989V6.90656H98.4697V13.3332H101.829C102.378 13.3332 102.847 13.2266 103.237 13.0132C103.635 12.7999 103.932 12.5243 104.126 12.1866C104.321 11.8488 104.418 11.4977 104.418 11.1332C104.418 10.5021 104.197 9.97767 103.755 9.55989C103.321 9.13322 102.679 8.91989 101.829 8.91989H100.488ZM101.457 12.0132H100.488V10.2799H101.471C101.745 10.2799 101.958 10.3599 102.108 10.5199C102.267 10.6799 102.347 10.8888 102.347 11.1466C102.347 11.4043 102.267 11.6132 102.108 11.7732C101.958 11.9332 101.741 12.0132 101.457 12.0132Z" fill="#D70A3F"/>
<path d="M107.048 6.90656H105.029V13.3332H107.048V6.90656Z" fill="#D70A3F"/>
<path d="M111.873 6.54656C111.13 6.54656 110.541 6.37767 110.107 6.03989C109.682 5.69322 109.448 5.21322 109.404 4.59989H110.904C110.913 4.85767 111.001 5.05767 111.17 5.19989C111.347 5.33322 111.581 5.39989 111.873 5.39989C112.174 5.39989 112.409 5.33322 112.577 5.19989C112.754 5.05767 112.847 4.85767 112.856 4.59989H114.343C114.308 5.20433 114.069 5.67989 113.626 6.02656C113.184 6.37322 112.599 6.54656 111.873 6.54656Z" fill="#D70A3F"/>
<path d="M110.771 12.8399V13.3332H108.74V6.90656H110.771V10.7732L113.108 7.47989V6.90656H115.127V13.3332H113.108V9.55989L110.771 12.8399Z" fill="#D70A3F"/>
<path d="M124.376 8.54655V13.3332H126.407V6.90656H120.047V13.3332H122.079V8.54655H124.376Z" fill="#D70A3F"/>
<path fill-rule="evenodd" clip-rule="evenodd" d="M131.141 13.5066C130.424 13.5066 129.795 13.3643 129.255 13.0799C128.715 12.7866 128.299 12.3821 128.007 11.8666C127.724 11.351 127.582 10.7688 127.582 10.1199C127.582 9.471 127.724 8.88878 128.007 8.37322C128.299 7.85767 128.715 7.45767 129.255 7.17322C129.795 6.87989 130.424 6.73322 131.141 6.73322C131.858 6.73322 132.482 6.87989 133.013 7.17322C133.553 7.45767 133.965 7.85767 134.248 8.37322C134.54 8.88878 134.686 9.471 134.686 10.1199C134.686 10.7688 134.54 11.351 134.248 11.8666C133.965 12.3821 133.553 12.7866 133.013 13.0799C132.482 13.3643 131.858 13.5066 131.141 13.5066ZM131.141 11.7866C131.61 11.7866 131.982 11.6354 132.256 11.3332C132.53 11.0221 132.668 10.6177 132.668 10.1199C132.668 9.62211 132.53 9.22211 132.256 8.91989C131.982 8.60878 131.61 8.45322 131.141 8.45322C130.663 8.45322 130.286 8.60878 130.012 8.91989C129.746 9.22211 129.614 9.62211 129.614 10.1199C129.614 10.6177 129.746 11.0221 130.012 11.3332C130.286 11.6354 130.663 11.7866 131.141 11.7866Z" fill="#D70A3F"/>
<path fill-rule="evenodd" clip-rule="evenodd" d="M141.497 7.15989C141.055 6.87544 140.546 6.73322 139.97 6.73322C139.51 6.73322 139.089 6.83544 138.709 7.03989C138.328 7.24433 138.049 7.50656 137.872 7.82656V6.90656H135.854V15.9999H137.872V12.4266C138.049 12.7377 138.319 12.9954 138.682 13.1999C139.054 13.4043 139.466 13.5066 139.917 13.5066C140.501 13.5066 141.019 13.3643 141.471 13.0799C141.931 12.7954 142.285 12.3999 142.533 11.8932C142.79 11.3777 142.918 10.7866 142.918 10.1199C142.918 9.45322 142.794 8.86656 142.546 8.35989C142.298 7.84433 141.949 7.44433 141.497 7.15989ZM140.422 11.3466C140.138 11.6577 139.776 11.8132 139.333 11.8132C138.881 11.8132 138.51 11.6577 138.218 11.3466C137.934 11.0354 137.793 10.6266 137.793 10.1199C137.793 9.62211 137.934 9.21767 138.218 8.90656C138.501 8.59544 138.873 8.43989 139.333 8.43989C139.776 8.43989 140.138 8.59544 140.422 8.90656C140.705 9.21767 140.847 9.62211 140.847 10.1199C140.847 10.6177 140.705 11.0266 140.422 11.3466Z" fill="#D70A3F"/>
<path d="M149.11 8.67989H147.318V13.3332H145.286V8.67989H143.507V6.90656H149.11V8.67989Z" fill="#D70A3F"/>
<path fill-rule="evenodd" clip-rule="evenodd" d="M151.151 13.0666C151.611 13.3599 152.151 13.5066 152.771 13.5066C153.214 13.5066 153.616 13.4088 153.979 13.2132C154.351 13.0088 154.626 12.7466 154.803 12.4266V13.3332H156.821V6.90656H154.803V7.82656C154.626 7.48878 154.36 7.22211 154.006 7.02656C153.652 6.831 153.249 6.73322 152.798 6.73322C152.196 6.73322 151.66 6.87989 151.191 7.17322C150.731 7.46656 150.376 7.871 150.129 8.38656C149.881 8.90211 149.757 9.47989 149.757 10.1199C149.757 10.7688 149.876 11.351 150.115 11.8666C150.354 12.3732 150.7 12.7732 151.151 13.0666ZM154.484 11.3332C154.218 11.6532 153.842 11.8132 153.355 11.8132C152.895 11.8132 152.523 11.6577 152.24 11.3466C151.965 11.0266 151.828 10.6177 151.828 10.1199C151.828 9.62211 151.965 9.21767 152.24 8.90656C152.523 8.59544 152.895 8.43989 153.355 8.43989C153.842 8.43989 154.218 8.59989 154.484 8.91989C154.749 9.23989 154.882 9.63989 154.882 10.1199C154.882 10.6088 154.749 11.0132 154.484 11.3332Z" fill="#D70A3F"/>
<path d="M158.269 11.6799C158.809 11.6799 159.079 11.2754 159.079 10.4666V6.90656H164.815V13.3332H162.783V8.63989H161.097V10.3999C161.097 11.3421 160.889 12.0799 160.473 12.6132C160.057 13.1466 159.446 13.4132 158.64 13.4132H158.03V11.6799H158.269Z" fill="#D70A3F"/>
<path d="M48.2914 20.3313H44.0025V28.5713H42.7941V19.238H49.4997V28.5713H48.2914V20.3313Z" fill="#D70A3F"/>
<path fill-rule="evenodd" clip-rule="evenodd" d="M54.9576 22.2647C53.975 22.2647 53.0987 22.7447 52.7003 23.518V22.4247H51.5584V31.4113H52.7003V27.4913C53.0987 28.2513 53.9485 28.7313 54.8912 28.7313C56.6572 28.7313 57.9187 27.3847 57.9187 25.5047C57.9187 23.5847 56.7104 22.2647 54.9576 22.2647ZM54.7319 27.6913C53.5103 27.6913 52.6472 26.7847 52.6472 25.5047C52.6472 24.2113 53.5103 23.3047 54.7319 23.3047C55.9137 23.3047 56.7635 24.2247 56.7635 25.5047C56.7635 26.7847 55.9137 27.6913 54.7319 27.6913Z" fill="#D70A3F"/>
<path fill-rule="evenodd" clip-rule="evenodd" d="M64.1173 27.4913C63.7322 28.2513 62.8559 28.7313 61.9396 28.7313C59.9877 28.7313 58.9122 27.318 58.9122 25.5047C58.9122 23.6913 60.0674 22.2647 61.9662 22.2647C62.9355 22.2647 63.7322 22.758 64.1173 23.518V22.4247H65.2592V28.5713H64.1173V27.4913ZM60.0541 25.5047C60.0541 26.758 60.8375 27.6913 62.099 27.6913C63.4401 27.6913 64.1704 26.6913 64.1704 25.5047C64.1704 24.318 63.4401 23.3047 62.099 23.3047C60.8375 23.3047 60.0541 24.238 60.0541 25.5047Z" fill="#D70A3F"/>
<path fill-rule="evenodd" clip-rule="evenodd" d="M67.2486 22.4247V28.5713H70.0636C71.6836 28.5713 72.135 27.5713 72.135 26.9047C72.135 26.0113 71.4711 25.438 70.6744 25.398C71.4446 25.318 72.0421 24.7447 72.0421 24.038C72.0421 23.3447 71.6703 22.4247 70.13 22.4247H67.2486ZM70.0503 25.0247H68.364V23.2513H70.0371C70.5416 23.2513 70.8869 23.6513 70.8869 24.1447C70.8869 24.6113 70.5416 25.0247 70.0503 25.0247ZM68.364 25.8513H70.0902C70.5947 25.8513 70.9931 26.3047 70.9931 26.8247C70.9931 27.318 70.5947 27.7447 70.0902 27.7447H68.364V25.8513Z" fill="#D70A3F"/>
<path d="M78.0603 28.5713V24.278L74.9133 28.0913V28.5713H73.7581V22.4247H74.9133V26.7713L78.0603 22.9447V22.4247H79.2155V28.5713H78.0603Z" fill="#D70A3F"/>
<path d="M85.5167 22.4247H80.617V23.5047H82.4892V28.5713H83.6312V23.5047H85.5167V22.4247Z" fill="#D70A3F"/>
<path fill-rule="evenodd" clip-rule="evenodd" d="M89.1185 22.2647C90.8446 22.2647 92.0131 23.4647 92.0131 25.158C92.0131 25.3847 92.0131 25.558 91.9866 25.838H87.2462C87.2728 27.0247 88.0031 27.718 89.1716 27.718C89.9816 27.718 90.5392 27.398 90.7915 26.8113H91.9467C91.7343 27.9447 90.6056 28.7313 89.1716 28.7313C87.286 28.7313 86.1043 27.478 86.1043 25.4913C86.1043 23.5447 87.2993 22.2647 89.1185 22.2647ZM89.1052 23.198C87.9898 23.198 87.2993 23.9046 87.2462 24.9447H90.8845C90.8845 23.8647 90.2206 23.198 89.1052 23.198Z" fill="#D70A3F"/>
<path d="M92.8317 27.5313V28.6247H93.3097C94.4915 28.6247 95.2085 27.7047 95.2085 25.9447V23.5047H97.5987V28.5713H98.7406V22.4247H94.0666V25.9847C94.0666 27.118 93.6815 27.5313 93.0707 27.5313H92.8317Z" fill="#D70A3F"/>
<path fill-rule="evenodd" clip-rule="evenodd" d="M100.73 28.5713V22.4247H101.872V24.5713H103.478C104.793 24.5713 105.616 25.4647 105.616 26.5713C105.616 27.6513 104.713 28.5713 103.452 28.5713H100.73ZM103.346 25.4913H101.872V27.6513H103.332C104.023 27.6513 104.421 27.1847 104.421 26.5713C104.421 25.958 104.036 25.4913 103.346 25.4913Z" fill="#D70A3F"/>
<path d="M109.542 28.7313C111.189 28.7313 112.251 27.838 112.397 26.4913H111.242C111.083 27.2647 110.498 27.6913 109.529 27.6913C108.361 27.6913 107.644 26.8647 107.644 25.5047C107.644 24.1313 108.361 23.318 109.529 23.318C110.498 23.318 111.083 23.7446 111.242 24.558H112.397C112.251 23.1847 111.189 22.278 109.542 22.278C107.657 22.278 106.502 23.598 106.502 25.5047C106.502 27.4113 107.657 28.7313 109.542 28.7313Z" fill="#D70A3F"/>
<path d="M112.957 22.4247H117.857V23.5047H115.971V28.5713H114.829V23.5047H112.957V22.4247Z" fill="#D70A3F"/>
<path fill-rule="evenodd" clip-rule="evenodd" d="M119.273 22.4247V28.5713H122.088C123.708 28.5713 124.159 27.5713 124.159 26.9047C124.159 26.0113 123.495 25.438 122.699 25.398C123.469 25.318 124.066 24.7447 124.066 24.038C124.066 23.3447 123.694 22.4247 122.154 22.4247H119.273ZM122.074 25.0247H120.388V23.2513H122.061C122.566 23.2513 122.911 23.6513 122.911 24.1447C122.911 24.6113 122.566 25.0247 122.074 25.0247ZM120.388 25.8513H122.114C122.619 25.8513 123.017 26.3047 123.017 26.8247C123.017 27.318 122.619 27.7447 122.114 27.7447H120.388V25.8513Z" fill="#D70A3F"/>
<path fill-rule="evenodd" clip-rule="evenodd" d="M130.496 27.4913C130.111 28.2513 129.235 28.7313 128.318 28.7313C126.367 28.7313 125.291 27.318 125.291 25.5047C125.291 23.6913 126.446 22.2647 128.345 22.2647C129.314 22.2647 130.111 22.758 130.496 23.518V22.4247H131.638V28.5713H130.496V27.4913ZM126.433 25.5047C126.433 26.758 127.216 27.6913 128.478 27.6913C129.819 27.6913 130.549 26.6913 130.549 25.5047C130.549 24.318 129.819 23.3047 128.478 23.3047C127.216 23.3047 126.433 24.238 126.433 25.5047Z" fill="#D70A3F"/>
<path d="M137.052 28.5713H138.207V21.718L140.943 28.5713H141.872L144.594 21.758V28.5713H145.75V19.238H144.594L141.408 26.8513L138.221 19.238H137.052V28.5713Z" fill="#D70A3F"/>
<path fill-rule="evenodd" clip-rule="evenodd" d="M153.696 25.5047C153.696 27.2913 152.487 28.7313 150.509 28.7313C148.517 28.7313 147.322 27.2913 147.322 25.5047C147.322 23.7047 148.517 22.2647 150.509 22.2647C152.487 22.2647 153.696 23.7047 153.696 25.5047ZM148.464 25.5047C148.464 26.7313 149.221 27.6913 150.509 27.6913C151.797 27.6913 152.541 26.7313 152.541 25.5047C152.541 24.2647 151.797 23.3047 150.509 23.3047C149.221 23.3047 148.464 24.2647 148.464 25.5047Z" fill="#D70A3F"/>
<path d="M157.806 28.7313C159.453 28.7313 160.515 27.838 160.661 26.4913H159.506C159.346 27.2647 158.762 27.6913 157.793 27.6913C156.624 27.6913 155.907 26.8647 155.907 25.5047C155.907 24.1313 156.624 23.318 157.793 23.318C158.762 23.318 159.346 23.7446 159.506 24.558H160.661C160.515 23.1847 159.453 22.278 157.806 22.278C155.92 22.278 154.765 23.598 154.765 25.5047C154.765 27.4113 155.92 28.7313 157.806 28.7313Z" fill="#D70A3F"/>
<path d="M164.453 25.3847L167.334 28.5713H165.9L163.297 25.678V28.5713H162.142V22.4247H163.297V25.0913H163.523C163.815 25.0913 164.041 24.9713 164.306 24.558L165.302 23.158C165.714 22.5847 165.993 22.358 166.617 22.358H167.108V23.4113H166.843C166.511 23.4113 166.338 23.5313 166.099 23.878L165.528 24.7047C165.156 25.2513 164.931 25.3847 164.519 25.3847H164.453Z" fill="#D70A3F"/>
<path fill-rule="evenodd" clip-rule="evenodd" d="M168.716 22.4247V28.5713H171.531C173.151 28.5713 173.603 27.5713 173.603 26.9047C173.603 26.0113 172.939 25.438 172.142 25.398C172.912 25.318 173.51 24.7447 173.51 24.038C173.51 23.3447 173.138 22.4247 171.598 22.4247H168.716ZM171.518 25.0247H169.832V23.2513H171.505C172.009 23.2513 172.355 23.6513 172.355 24.1447C172.355 24.6113 172.009 25.0247 171.518 25.0247ZM169.832 25.8513H171.558C172.063 25.8513 172.461 26.3047 172.461 26.8247C172.461 27.318 172.063 27.7447 171.558 27.7447H169.832V25.8513Z" fill="#D70A3F"/>
<path fill-rule="evenodd" clip-rule="evenodd" d="M175.226 28.5713V22.4247H176.368V24.5713H177.975C179.289 24.5713 180.112 25.4647 180.112 26.5713C180.112 27.6513 179.209 28.5713 177.948 28.5713H175.226ZM177.842 25.4913H176.368V27.6513H177.829C178.519 27.6513 178.917 27.1847 178.917 26.5713C178.917 25.958 178.532 25.4913 177.842 25.4913Z" fill="#D70A3F"/>
<path d="M182.104 28.5713H180.962V22.4247H182.104V28.5713Z" fill="#D70A3F"/>
</svg>
